<svg id="_6" data-name="6" xmlns="http://www.w3.org/2000/svg" xmlns:xlink="http://www.w3.org/1999/xlink" viewBox="0 0 165 256"><defs><style>.cls-1{fill:url(#linear-gradient);}.cls-2{fill:#ebebeb;}</style><linearGradient id="linear-gradient" x1="27.16" y1="-5.6" x2="137.84" y2="261.6" gradientUnits="userSpaceOnUse"><stop offset="0" stop-color="#ff9180"/><stop offset="0.07" stop-color="#ff826e"/><stop offset="0.12" stop-color="#ff7b66"/><stop offset="0.22" stop-color="#ff634c"/><stop offset="0.3" stop-color="#ff553d"/><stop offset="0.36" stop-color="#fc482f"/><stop offset="0.48" stop-color="#f9351a"/><stop offset="0.61" stop-color="#f6270b"/><stop offset="0.76" stop-color="#f41f03"/><stop offset="1" stop-color="#f41d00"/></linearGradient></defs><title>red</title><g id="Layer_3_copy_37" data-name="Layer 3 copy 37"><rect class="cls-1" width="165" height="256" rx="17" ry="17"/></g><path class="cls-2" d="M112.1,136.85c0,10.31-6.82,27.94-28.38,27.94-19.61,0-30.82-14.3-30.82-39.81,0-25.06,14.5-46.69,34.47-46.69,10.6,0,19.13,6,20.95,7.21l-6.45,6.1a24.86,24.86,0,0,0-14-4.55c-18.76,0-25,24.62-25.34,39.37,8-11.31,16.81-14.42,24.12-14.42C100.28,112,112.1,118.44,112.1,136.85Zm-10.11,0c0-12.54-7.19-16.64-15.35-16.64-6.82,0-15.47,3.77-22.78,18C66.42,150,73.49,156.7,83.72,156.7,97.61,156.7,102,144.05,102,136.85Z"/><g id="Layer_31" data-name="Layer 31"><rect class="cls-2" x="62.11" y="169.54" width="43.63" height="8.17"/></g><g id="Layer_32" data-name="Layer 32"><g id="Layer_33" data-name="Layer 33"><path class="cls-2" d="M131.65,222.85c0-3.46,2.29-9.37,9.52-9.37,6.57,0,10.33,4.79,10.33,13.34s-4.86,15.66-11.56,15.66a13,13,0,0,1-7-2.42l2.16-2a8.35,8.35,0,0,0,4.7,1.52c6.29,0,8.37-8.25,8.49-13.2-2.69,3.79-5.63,4.83-8.08,4.83C135.61,231.17,131.65,229,131.65,222.85Zm3.39,0c0,4.2,2.41,5.57,5.15,5.57,2.28,0,5.18-1.26,7.63-6-.85-4-3.22-6.21-6.65-6.21C136.51,216.19,135,220.43,135,222.85Z"/><rect class="cls-2" x="133.78" y="209.15" width="14.63" height="2.74" transform="translate(282.19 421.03) rotate(-180)"/><path class="cls-2" d="M33.72,33.2c0,3.46-2.28,9.37-9.51,9.37-6.58,0-10.34-4.79-10.34-13.35,0-8.4,4.86-15.65,11.56-15.65a13,13,0,0,1,7,2.42l-2.17,2a8.34,8.34,0,0,0-4.69-1.52c-6.29,0-8.38,8.25-8.5,13.2,2.7-3.8,5.64-4.84,8.09-4.84C29.76,24.87,33.72,27,33.72,33.2Zm-3.39,0c0-4.2-2.41-5.57-5.14-5.57-2.29,0-5.19,1.26-7.64,6,.86,4,3.23,6.21,6.66,6.21C28.86,39.86,30.33,35.62,30.33,33.2Z"/><rect class="cls-2" x="16.96" y="44.17" width="14.63" height="2.74"/></g></g></svg>