<svg id="_8" data-name="8" xmlns="http://www.w3.org/2000/svg" xmlns:xlink="http://www.w3.org/1999/xlink" viewBox="0 0 165 256"><defs><style>.cls-1{fill:url(#linear-gradient);}.cls-2{fill:#ebebeb;}</style><linearGradient id="linear-gradient" x1="27.16" y1="-5.6" x2="137.84" y2="261.6" gradientUnits="userSpaceOnUse"><stop offset="0" stop-color="#ffe780"/><stop offset="0.07" stop-color="#ffe46e"/><stop offset="0.12" stop-color="#ffe366"/><stop offset="0.22" stop-color="#ffde4c"/><stop offset="0.3" stop-color="#ffdb3d"/><stop offset="0.36" stop-color="#fdd32f"/><stop offset="0.48" stop-color="#fac81a"/><stop offset="0.61" stop-color="#f8c00b"/><stop offset="0.76" stop-color="#f7bb03"/><stop offset="1" stop-color="#f7ba00"/></linearGradient></defs><title>yellow</title><g id="Layer_3_copy_31" data-name="Layer 3 copy 31"><rect class="cls-1" width="165" height="256" rx="17" ry="17"/></g><path class="cls-2" d="M89.34,126.56c11,6.84,21.39,14.56,21.39,24.7C110.73,172,84,171,82.38,171s-28.11.66-28.11-19.73c.12-11.36,10.94-20.4,19-24.81-9.21-6.5-16.67-14.11-16.67-23.37C56.63,89.41,70.19,85,82.38,85s26,4.41,26,18.08C108.37,114.44,96.31,122.81,89.34,126.56Zm-9.2,4.19c-6.84,3.86-15,10.92-15.8,20.51,0,12.46,17,12,18,12s18,.56,18-12C100.41,144.64,90.83,137.7,80.14,130.75Zm17.78-27.67c0-8.6-8.08-10.91-15.54-10.91s-15.55,2.31-15.55,10.91c0,7.06,7.21,13,15.17,18.74C86.73,119.62,97.92,112.89,97.92,103.08Z"/><g id="Layer_61" data-name="Layer 61"><path class="cls-2" d="M25.77,28c3.82,2.4,7.48,5.09,7.48,8.64,0,7.25-9.35,6.9-9.92,6.9s-9.83.23-9.83-6.9c0-4,3.83-7.13,6.65-8.67-3.21-2.28-5.82-4.94-5.82-8.18,0-4.78,4.74-6.32,9-6.32s9.09,1.54,9.09,6.32C32.42,23.79,28.2,26.72,25.77,28ZM22.55,29.5c-2.4,1.35-5.27,3.82-5.53,7.17,0,4.36,6,4.2,6.31,4.2s6.31.2,6.31-4.2C29.64,34.36,26.29,31.93,22.55,29.5Zm6.22-9.68c0-3-2.83-3.81-5.44-3.81s-5.44.81-5.44,3.81c0,2.47,2.53,4.55,5.31,6.56C24.85,25.61,28.77,23.25,28.77,19.82Z"/><path class="cls-2" d="M139.23,228c-3.82-2.39-7.48-5.08-7.48-8.63,0-7.25,9.35-6.9,9.92-6.9s9.83-.23,9.83,6.9c0,4-3.83,7.13-6.65,8.67,3.21,2.28,5.82,4.94,5.82,8.18,0,4.78-4.74,6.32-9,6.32s-9.09-1.54-9.09-6.32C132.58,232.21,136.8,229.28,139.23,228Zm3.22-1.46c2.4-1.35,5.27-3.82,5.53-7.17,0-4.36-6-4.2-6.31-4.2s-6.31-.2-6.31,4.2C135.36,221.64,138.71,224.07,142.45,226.5Zm-6.22,9.68c0,3,2.83,3.81,5.44,3.81s5.44-.81,5.44-3.81c0-2.47-2.53-4.55-5.31-6.56C140.15,230.39,136.23,232.75,136.23,236.18Z"/></g></svg>