<svg id="_0" data-name="0" xmlns="http://www.w3.org/2000/svg" xmlns:xlink="http://www.w3.org/1999/xlink" viewBox="0 0 165 256"><defs><style>.cls-1{fill:url(#linear-gradient);}.cls-2{fill:#ebebeb;}</style><linearGradient id="linear-gradient" x1="27.16" y1="-5.6" x2="137.84" y2="261.6" gradientUnits="userSpaceOnUse"><stop offset="0" stop-color="#94c462"/><stop offset="0.06" stop-color="#8ec456"/><stop offset="0.12" stop-color="#8ac44e"/><stop offset="0.2" stop-color="#82c43e"/><stop offset="0.3" stop-color="#7bc42f"/><stop offset="0.3" stop-color="#7bc42f"/><stop offset="0.4" stop-color="#60ba1e"/><stop offset="0.51" stop-color="#4bb311"/><stop offset="0.63" stop-color="#3cad07"/><stop offset="0.78" stop-color="#34aa02"/><stop offset="1" stop-color="#31a900"/></linearGradient></defs><title>green</title><g id="Layer_3_copy_22" data-name="Layer 3 copy 22"><rect class="cls-1" width="165" height="256" rx="17" ry="17"/></g><path class="cls-2" d="M82.1,85.49c14,0,29.17,10.06,29.17,42.88S96.09,171.25,82.1,171.25s-29.17-10.06-29.17-42.88S68.11,85.49,82.1,85.49Zm0,10.79c-9.25,0-19.21,7.44-19.21,32.09s10,32.09,19.21,32.09,19.21-7.44,19.21-32.09S91.35,96.28,82.1,96.28Z"/><g id="Layer_66" data-name="Layer 66"><path class="cls-2" d="M23.36,13.5c4.73,0,9.87,3.4,9.87,14.5s-5.14,14.5-9.87,14.5S13.5,39.1,13.5,28,18.63,13.5,23.36,13.5Zm0,3.65c-3.12,0-6.49,2.51-6.49,10.85s3.37,10.85,6.49,10.85,6.5-2.51,6.5-10.85S26.49,17.15,23.36,17.15Z"/><path class="cls-2" d="M141.64,242.12c-4.73,0-9.87-3.4-9.87-14.5s5.14-14.5,9.87-14.5,9.86,3.4,9.86,14.5S146.37,242.12,141.64,242.12Zm0-3.65c3.12,0,6.49-2.52,6.49-10.85s-3.37-10.85-6.49-10.85-6.5,2.51-6.5,10.85S138.51,238.47,141.64,238.47Z"/></g></svg>