<svg id="_3" data-name="3" xmlns="http://www.w3.org/2000/svg" xmlns:xlink="http://www.w3.org/1999/xlink" viewBox="0 0 165 256"><defs><style>.cls-1{fill:url(#linear-gradient);}.cls-2{fill:#ebebeb;}</style><linearGradient id="linear-gradient" x1="27.16" y1="-5.6" x2="137.84" y2="261.6" gradientUnits="userSpaceOnUse"><stop offset="0" stop-color="#63a7c5"/><stop offset="0.06" stop-color="#57a3c5"/><stop offset="0.12" stop-color="#4fa1c5"/><stop offset="0.21" stop-color="#3e9cc5"/><stop offset="0.3" stop-color="#2f97c5"/><stop offset="0.35" stop-color="#278dc0"/><stop offset="0.46" stop-color="#1678b7"/><stop offset="0.6" stop-color="#0969b0"/><stop offset="0.75" stop-color="#0261ac"/><stop offset="1" stop-color="#005eab"/></linearGradient></defs><title>blue</title><g id="Layer_3_copy_52" data-name="Layer 3 copy 52"><rect class="cls-1" width="165" height="256" rx="17" ry="17"/></g><path class="cls-2" d="M53.45,96.31S61,85,78.31,85c12.78,0,23.86,7.18,23.86,17.35,0,6.85-6.25,11.94-12.5,15.81,13.21,1.32,24.43,9.61,24.86,20.77,0,22.22-23.86,32.28-40.62,32.28a44.48,44.48,0,0,1-23.44-6.74L58,159s5.4,3.76,15.91,3.43c11.64,0,29-7.19,29-23.44,0-6.85-7.95-13.37-17.18-13.37-10.09,0-19.89,2.87-20,2.76v-7.51c13.21-3.87,24.86-9.29,24.86-18.46,0-5.31-5.83-8.62-12.08-8.62-13.07,0-18.32,7.62-18.32,7.62Z"/><g id="Layer_55" data-name="Layer 55"><path class="cls-2" d="M14.37,17.16a9.76,9.76,0,0,1,8.07-3.66c4.15,0,7.75,2.33,7.75,5.64,0,2.22-2,3.87-4.06,5.13,4.29.43,7.93,3.12,8.07,6.75C34.2,38.23,26.45,41.5,21,41.5a14.4,14.4,0,0,1-7.61-2.19l2.44-1.8A9,9,0,0,0,21,38.63c3.78,0,9.41-2.34,9.41-7.61,0-2.23-2.58-4.35-5.58-4.35a31.07,31.07,0,0,0-6.51.9V25.13c4.29-1.26,8.08-3,8.08-6,0-1.73-1.9-2.8-3.93-2.8-4.24,0-5.95,2.47-5.95,2.47Z"/></g><g id="Layer_56" data-name="Layer 56"><path class="cls-2" d="M150.67,238.91a9.79,9.79,0,0,1-8.08,3.66c-4.15,0-7.75-2.33-7.75-5.63,0-2.23,2-3.88,4.06-5.14-4.29-.43-7.93-3.12-8.07-6.74,0-7.22,7.75-10.49,13.19-10.49a14.52,14.52,0,0,1,7.62,2.19l-2.45,1.8a9,9,0,0,0-5.17-1.11c-3.78,0-9.41,2.33-9.41,7.61,0,2.22,2.59,4.34,5.58,4.34a30.33,30.33,0,0,0,6.51-.9v2.44c-4.29,1.26-8.07,3-8.07,6,0,1.72,1.89,2.8,3.92,2.8,4.24,0,5.95-2.48,5.95-2.48Z"/></g></svg>