<svg id="_2" data-name="2" xmlns="http://www.w3.org/2000/svg" xmlns:xlink="http://www.w3.org/1999/xlink" viewBox="0 0 165 256"><defs><style>.cls-1{fill:url(#linear-gradient);}.cls-2{fill:#ebebeb;}</style><linearGradient id="linear-gradient" x1="27.16" y1="-5.6" x2="137.84" y2="261.6" gradientUnits="userSpaceOnUse"><stop offset="0" stop-color="#63a7c5"/><stop offset="0.06" stop-color="#57a3c5"/><stop offset="0.12" stop-color="#4fa1c5"/><stop offset="0.21" stop-color="#3e9cc5"/><stop offset="0.3" stop-color="#2f97c5"/><stop offset="0.35" stop-color="#278dc0"/><stop offset="0.46" stop-color="#1678b7"/><stop offset="0.6" stop-color="#0969b0"/><stop offset="0.75" stop-color="#0261ac"/><stop offset="1" stop-color="#005eab"/></linearGradient></defs><title>2blue</title><g id="Layer_3_copy_56" data-name="Layer 3 copy 56"><rect class="cls-1" width="165" height="256" rx="17" ry="17"/></g><g id="Layer_21" data-name="Layer 21"><path class="cls-2" d="M13.9,19.34c1.3-2.32,4-5.79,8.94-5.84,5.14,0,8.5,3,8.5,8.74S23,35.36,19.53,37.68H32.86v3.67H13.5V38.26c.09,0,14-10.71,14-16-.05-3.53-2.1-5.07-4.74-5-4.34,0-6.48,4.77-6.48,4.77S13.9,19.39,13.9,19.34Z"/></g><g id="Layer_68" data-name="Layer 68"><path class="cls-2" d="M54.18,103.28c4-7.19,12.49-18,27.75-18.12,15.95,0,26.35,9.43,26.35,27.11,0,18.12-25.8,40.74-36.62,47.93H113v11.38H52.93V162c.28,0,43.56-33.25,43.56-49.72-.14-10.94-6.52-15.73-14.7-15.58-13.46.15-20.12,14.83-20.12,14.83S54.18,103.43,54.18,103.28Z"/></g><g id="Layer_67" data-name="Layer 67"><path class="cls-2" d="M151.1,236.66c-1.3,2.32-4,5.79-8.94,5.84-5.14,0-8.5-3-8.5-8.74s8.32-13.12,11.81-15.44H132.14v-3.67H151.5v3.09c-.09,0-14,10.71-14,16,0,3.53,2.1,5.07,4.74,5,4.34,0,6.48-4.77,6.48-4.77S151.1,236.61,151.1,236.66Z"/></g></svg>