<svg id="_2" data-name="+2" xmlns="http://www.w3.org/2000/svg" xmlns:xlink="http://www.w3.org/1999/xlink" viewBox="0 0 165 256"><defs><style>.cls-1{fill:url(#linear-gradient);}.cls-2{fill:none;stroke:#ebebeb;stroke-miterlimit:10;stroke-width:7px;}.cls-3{fill:#ebebeb;}</style><linearGradient id="linear-gradient" x1="27.16" y1="-5.6" x2="137.84" y2="261.6" gradientUnits="userSpaceOnUse"><stop offset="0" stop-color="#94c462"/><stop offset="0.06" stop-color="#8ec456"/><stop offset="0.12" stop-color="#8ac44e"/><stop offset="0.2" stop-color="#82c43e"/><stop offset="0.3" stop-color="#7bc42f"/><stop offset="0.3" stop-color="#7bc42f"/><stop offset="0.4" stop-color="#60ba1e"/><stop offset="0.51" stop-color="#4bb311"/><stop offset="0.63" stop-color="#3cad07"/><stop offset="0.78" stop-color="#34aa02"/><stop offset="1" stop-color="#31a900"/></linearGradient></defs><title>green</title><g id="Layer_3_copy_14" data-name="Layer 3 copy 14"><rect class="cls-1" width="165" height="256" rx="17" ry="17"/></g><path class="cls-2" d="M71.49,127"/><g id="Layer_46" data-name="Layer 46"><path class="cls-3" d="M31.94,19.35a11.31,11.31,0,0,1,9.7-5.85c5.59,0,9.23,3.05,9.23,8.76s-9,13.16-12.82,15.48H52.52v3.68h-21v-3.1c.1,0,15.24-10.74,15.24-16.06-.05-3.53-2.28-5.08-5.14-5-4.71,0-7,4.79-7,4.79S31.94,19.4,31.94,19.35Z"/><g id="Layer_48" data-name="Layer 48"><polygon class="cls-3" points="28.63 25.45 23.06 25.45 23.06 19.9 19.06 19.9 19.06 25.45 13.5 25.45 13.5 29.45 19.06 29.45 19.06 35.02 23.06 35.02 23.06 29.45 28.63 29.45 28.63 25.45"/></g><path class="cls-3" d="M133.06,236.65a11.31,11.31,0,0,1-9.7,5.85c-5.59,0-9.23-3.05-9.23-8.76s9-13.16,12.82-15.48H112.48v-3.68h21v3.1c-.1,0-15.24,10.74-15.24,16.06,0,3.53,2.28,5.08,5.14,5,4.71,0,7-4.79,7-4.79S133.06,236.6,133.06,236.65Z"/><polygon class="cls-3" points="136.38 230.54 141.94 230.54 141.94 236.1 145.94 236.1 145.94 230.54 151.5 230.54 151.5 226.54 145.94 226.54 145.94 220.98 141.94 220.98 141.94 226.54 136.38 226.54 136.38 230.54"/></g><path class="cls-2" d="M89.52,135.27h21.6a2.73,2.73,0,0,0,2.72-2.72V82.94a2.72,2.72,0,0,0-2.72-2.71H78.2a2.72,2.72,0,0,0-2.72,2.71v38.13"/><path class="cls-2" d="M75.48,127v5.55a2.73,2.73,0,0,0,2.72,2.72h5.24"/><path class="cls-2" d="M86.85,120.73h-33a2.68,2.68,0,0,0-2.67,2.67v49.7a2.68,2.68,0,0,0,2.67,2.67h33a2.68,2.68,0,0,0,2.67-2.67V123.4A2.68,2.68,0,0,0,86.85,120.73Z"/></svg>