<svg id="_4" data-name="+4" xmlns="http://www.w3.org/2000/svg" xmlns:xlink="http://www.w3.org/1999/xlink" viewBox="0 0 165 256"><defs><style>.cls-1{fill:url(#linear-gradient);}.cls-2,.cls-3{fill:#ebebeb;}.cls-2{stroke:#ebebeb;}.cls-2,.cls-4,.cls-5,.cls-6,.cls-7{stroke-miterlimit:10;}.cls-4,.cls-5,.cls-6,.cls-7{fill:none;stroke-width:7px;}.cls-4{stroke:#31a900;}.cls-5{stroke:#f7ba00;}.cls-6{stroke:#005eab;}.cls-7{stroke:#f41d00;}</style><linearGradient id="linear-gradient" x1="27.16" y1="-5.6" x2="137.84" y2="261.6" gradientUnits="userSpaceOnUse"><stop offset="0" stop-color="#807b7c"/><stop offset="0.07" stop-color="#6e696b"/><stop offset="0.12" stop-color="#666264"/><stop offset="0.18" stop-color="#5c585a"/><stop offset="0.3" stop-color="#4d4a4b"/><stop offset="0.45" stop-color="#423e3f"/><stop offset="0.67" stop-color="#3a3637"/><stop offset="1" stop-color="#373334"/></linearGradient></defs><title>black</title><g id="Layer_3_copy_10" data-name="Layer 3 copy 10"><rect class="cls-1" width="165" height="256" rx="17" ry="17"/></g><path class="cls-2" d="M112.84,221.38h3.82V214h3.24v7.39h13.24v1.71l-14.26,18.82h-2.22V224.14h-3.82Zm7.06,2.76v12.19l8.73-11.79.51-.51v0l-.69.14Z"/><polygon class="cls-3" points="151.5 225.95 145.94 225.95 145.94 220.39 141.94 220.39 141.94 225.95 136.38 225.95 136.38 229.95 141.94 229.95 141.94 235.52 145.94 235.52 145.94 229.95 151.5 229.95 151.5 225.95"/><path class="cls-2" d="M52.16,34.62H48.34V42H45.1V34.62H31.86V32.91L46.12,14.09h2.22V31.86h3.82ZM45.1,31.86V19.67L36.37,31.46l-.51.51v0l.69-.14Z"/><polygon class="cls-3" points="28.63 26.05 23.06 26.05 23.06 20.49 19.06 20.49 19.06 26.05 13.5 26.05 13.5 30.05 19.06 30.05 19.06 35.61 23.06 35.61 23.06 30.05 28.63 30.05 28.63 26.05"/><g id="Layer_50" data-name="Layer 50"><path class="cls-4" d="M114.27,124.73h21.6a2.72,2.72,0,0,0,2.72-2.72V72.41a2.72,2.72,0,0,0-2.72-2.72H103a2.72,2.72,0,0,0-2.72,2.72v38.12"/><path class="cls-5" d="M75.91,145.09v17.48a2.68,2.68,0,0,0,2.67,2.67h33a2.68,2.68,0,0,0,2.67-2.67v-49.7a2.68,2.68,0,0,0-2.67-2.67H87"/><path class="cls-6" d="M64.77,145.8h21.6a2.72,2.72,0,0,0,2.72-2.72V93.48a2.72,2.72,0,0,0-2.72-2.72H53.45a2.72,2.72,0,0,0-2.72,2.72V131.6"/><path class="cls-7" d="M62.1,131.27h-33a2.68,2.68,0,0,0-2.67,2.67v49.7a2.68,2.68,0,0,0,2.67,2.67h33a2.68,2.68,0,0,0,2.67-2.67v-49.7A2.68,2.68,0,0,0,62.1,131.27Z"/><g id="Layer_51_copy" data-name="Layer 51 copy"><path class="cls-4" d="M100.23,116.4V122a2.72,2.72,0,0,0,2.72,2.72h5.19"/><path class="cls-5" d="M82.33,110.2H78.58a2.68,2.68,0,0,0-2.67,2.67v26.21"/><path class="cls-6" d="M50.73,137.46v5.62a2.72,2.72,0,0,0,2.72,2.72h5.06"/></g></g></svg>