<svg xmlns="http://www.w3.org/2000/svg" xmlns:xlink="http://www.w3.org/1999/xlink" viewBox="0 0 165 256"><defs><style>.cls-1{fill:url(#linear-gradient);}.cls-2,.cls-3{fill:#ebebeb;}.cls-2,.cls-4{stroke:#ebebeb;}.cls-2,.cls-4,.cls-5,.cls-6,.cls-7,.cls-8{stroke-miterlimit:10;}.cls-4,.cls-5,.cls-6,.cls-7,.cls-8{fill:none;stroke-width:7px;}.cls-5{stroke:#31a900;}.cls-6{stroke:#f7ba00;}.cls-7{stroke:#005eab;}.cls-8{stroke:#f41d00;}</style><linearGradient id="linear-gradient" x1="27.16" y1="-5.6" x2="137.84" y2="261.6" gradientUnits="userSpaceOnUse"><stop offset="0" stop-color="#807b7c"/><stop offset="0.07" stop-color="#6e696b"/><stop offset="0.12" stop-color="#666264"/><stop offset="0.18" stop-color="#5c585a"/><stop offset="0.3" stop-color="#4d4a4b"/><stop offset="0.45" stop-color="#423e3f"/><stop offset="0.67" stop-color="#3a3637"/><stop offset="1" stop-color="#373334"/></linearGradient></defs><title>+4</title><g id="Layer_3_copy_9" data-name="Layer 3 copy 9"><rect class="cls-1" width="165" height="256" rx="17" ry="17"/></g><g id="_4" data-name="+4"><path class="cls-2" d="M47.16,29H43.34v7.4H40.1V29H26.86v-1.7L41.12,8.5h2.22V26.27h3.82ZM40.1,26.27V14.09L31.37,25.87l-.51.51v0l.69-.15Z"/><path class="cls-2" d="M117.84,227h3.82v-7.4h3.24V227h13.24v1.7L123.88,247.5h-2.22V229.73h-3.82Zm7.06,2.76v12.18l8.73-11.78.51-.51v0l-.69.15Z"/><polygon class="cls-3" points="23.63 20.46 18.06 20.46 18.06 14.9 14.06 14.9 14.06 20.46 8.5 20.46 8.5 24.46 14.06 24.46 14.06 30.03 18.06 30.03 18.06 24.46 23.63 24.46 23.63 20.46"/><polygon class="cls-3" points="156.5 231.53 150.94 231.53 150.94 225.98 146.94 225.98 146.94 231.53 141.38 231.53 141.38 235.53 146.94 235.53 146.94 241.1 150.94 241.1 150.94 235.53 156.5 235.53 156.5 231.53"/><path class="cls-4" d="M81.92,115.62"/><g id="Layer_50" data-name="Layer 50"><path class="cls-5" d="M114.27,124.73h21.6a2.72,2.72,0,0,0,2.72-2.72V72.41a2.72,2.72,0,0,0-2.72-2.72H103a2.72,2.72,0,0,0-2.72,2.72v38.12"/><path class="cls-6" d="M75.91,145.09v17.48a2.68,2.68,0,0,0,2.67,2.67h33a2.68,2.68,0,0,0,2.67-2.67v-49.7a2.68,2.68,0,0,0-2.67-2.67H87"/><path class="cls-7" d="M64.77,145.8h21.6a2.72,2.72,0,0,0,2.72-2.72V93.48a2.72,2.72,0,0,0-2.72-2.72H53.45a2.72,2.72,0,0,0-2.72,2.72V131.6"/><path class="cls-8" d="M62.1,131.27h-33a2.68,2.68,0,0,0-2.67,2.67v49.7a2.68,2.68,0,0,0,2.67,2.67h33a2.68,2.68,0,0,0,2.67-2.67v-49.7A2.68,2.68,0,0,0,62.1,131.27Z"/></g><g id="Layer_51_copy" data-name="Layer 51 copy"><path class="cls-5" d="M100.23,116.4V122a2.72,2.72,0,0,0,2.72,2.72h5.19"/><path class="cls-6" d="M82.33,110.2H78.58a2.68,2.68,0,0,0-2.67,2.67v26.21"/><path class="cls-7" d="M50.73,137.46v5.62a2.72,2.72,0,0,0,2.72,2.72h5.06"/></g></g></svg>