<svg id="_5" data-name="5" xmlns="http://www.w3.org/2000/svg" xmlns:xlink="http://www.w3.org/1999/xlink" viewBox="0 0 165 256"><defs><style>.cls-1{fill:url(#linear-gradient);}.cls-2{fill:#ebebeb;}</style><linearGradient id="linear-gradient" x1="27.16" y1="-5.6" x2="137.84" y2="261.6" gradientUnits="userSpaceOnUse"><stop offset="0" stop-color="#ffe780"/><stop offset="0.07" stop-color="#ffe46e"/><stop offset="0.12" stop-color="#ffe366"/><stop offset="0.22" stop-color="#ffde4c"/><stop offset="0.3" stop-color="#ffdb3d"/><stop offset="0.36" stop-color="#fdd32f"/><stop offset="0.48" stop-color="#fac81a"/><stop offset="0.61" stop-color="#f8c00b"/><stop offset="0.76" stop-color="#f7bb03"/><stop offset="1" stop-color="#f7ba00"/></linearGradient></defs><title>yellow</title><g id="Layer_3_copy_43" data-name="Layer 3 copy 43"><rect class="cls-1" width="165" height="256" rx="17" ry="17"/></g><path class="cls-2" d="M67.17,115.85A33.65,33.65,0,0,1,81,113c19.94,0,30.41,10.66,30.41,25,0,23.31-13.46,32.74-31.78,32.74a39.3,39.3,0,0,1-26-9.54l6-6.55s9,7.88,20.06,7.88c12,0,21.69-7.1,21.69-24.31,0-7.65-6.48-17.09-20.32-17.09-5.6,0-11.21.78-16.57,4H56.2V85.33h48.11v8.32H67.17Z"/><g id="Layer_57" data-name="Layer 57"><path class="cls-2" d="M18.46,24.63a12.29,12.29,0,0,1,5-1.05c7.28,0,11.1,3.89,11.1,9.11,0,8.5-4.91,11.94-11.6,11.94a14.35,14.35,0,0,1-9.5-3.48l2.18-2.39A12.51,12.51,0,0,0,23,41.64c4.37,0,7.91-2.59,7.91-8.87,0-2.79-2.36-6.23-7.41-6.23a11.31,11.31,0,0,0-6,1.45h-3V13.5H32v3H18.46Z"/><path class="cls-2" d="M146.54,231.37a12.29,12.29,0,0,1-5,1c-7.28,0-11.1-3.89-11.1-9.11,0-8.5,4.91-11.94,11.6-11.94a14.35,14.35,0,0,1,9.5,3.48l-2.18,2.39a12.51,12.51,0,0,0-7.32-2.88c-4.37,0-7.91,2.59-7.91,8.87,0,2.79,2.36,6.23,7.41,6.23a11.31,11.31,0,0,0,6-1.45h3V242.5H133v-3h13.54Z"/></g></svg>