<svg id="O" xmlns="http://www.w3.org/2000/svg" xmlns:xlink="http://www.w3.org/1999/xlink" viewBox="0 0 165 256"><defs><style>.cls-1{fill:url(#linear-gradient);}.cls-2{fill:none;}.cls-3{fill:#ebebeb;}</style><linearGradient id="linear-gradient" x1="27.16" y1="-5.6" x2="137.84" y2="261.6" gradientUnits="userSpaceOnUse"><stop offset="0" stop-color="#94c462"/><stop offset="0.06" stop-color="#8ec456"/><stop offset="0.12" stop-color="#8ac44e"/><stop offset="0.2" stop-color="#82c43e"/><stop offset="0.3" stop-color="#7bc42f"/><stop offset="0.3" stop-color="#7bc42f"/><stop offset="0.4" stop-color="#60ba1e"/><stop offset="0.51" stop-color="#4bb311"/><stop offset="0.63" stop-color="#3cad07"/><stop offset="0.78" stop-color="#34aa02"/><stop offset="1" stop-color="#31a900"/></linearGradient></defs><title>green</title><g id="Layer_3_copy_18" data-name="Layer 3 copy 18"><rect class="cls-1" width="165" height="256" rx="17" ry="17"/></g><path class="cls-2" d="M137,217.16a11.6,11.6,0,0,0-11.8,11.38,11.09,11.09,0,0,0,2.57,7.07l16.57-16A12.06,12.06,0,0,0,137,217.16Z"/><path class="cls-2" d="M146.25,221.46l-16.56,16a12,12,0,0,0,7.33,2.47,11.59,11.59,0,0,0,11.8-11.37A11.11,11.11,0,0,0,146.25,221.46Z"/><path class="cls-3" d="M137,214.57a14,14,0,1,0,14.48,14A14.23,14.23,0,0,0,137,214.57Zm-11.8,14A11.6,11.6,0,0,1,137,217.16a12.06,12.06,0,0,1,7.34,2.47l-16.57,16A11.09,11.09,0,0,1,125.22,228.54ZM137,239.91a12,12,0,0,1-7.33-2.47l16.56-16a11.11,11.11,0,0,1,2.57,7.08A11.59,11.59,0,0,1,137,239.91Z"/><g id="Layer_23" data-name="Layer 23"><path class="cls-2" d="M23,10.09a11.59,11.59,0,0,0-11.8,11.37,11.11,11.11,0,0,0,2.57,7.08l16.56-16A12,12,0,0,0,23,10.09Z"/><path class="cls-2" d="M15.64,30.37A12.06,12.06,0,0,0,23,32.84a11.6,11.6,0,0,0,11.8-11.38,11.09,11.09,0,0,0-2.57-7.07Z"/><path class="cls-3" d="M28,13.5a14.23,14.23,0,0,0-14.48,14A14.23,14.23,0,0,0,28,41.43a14.24,14.24,0,0,0,14.48-14A14.23,14.23,0,0,0,28,13.5Zm-11.8,14A11.59,11.59,0,0,1,28,16.09a12,12,0,0,1,7.33,2.47l-16.56,16A11.11,11.11,0,0,1,16.18,27.46ZM28,38.84a12.06,12.06,0,0,1-7.34-2.47l16.57-16a11.09,11.09,0,0,1,2.57,7.07A11.6,11.6,0,0,1,28,38.84Z"/></g><g id="Layer_8" data-name="Layer 8"><path class="cls-3" d="M82.5,171.25A43.25,43.25,0,1,0,39.25,128,43.25,43.25,0,0,0,82.5,171.25Zm0-8a35.06,35.06,0,0,1-21.91-7.67l49.48-49.48A35.21,35.21,0,0,1,82.5,163.24Zm0-70.48a35.06,35.06,0,0,1,21.91,7.67L54.93,149.91A35.21,35.21,0,0,1,82.5,92.76Z"/></g></svg>