<svg id="reverse" xmlns="http://www.w3.org/2000/svg" xmlns:xlink="http://www.w3.org/1999/xlink" viewBox="0 0 165 256"><defs><style>.cls-1{fill:url(#linear-gradient);}.cls-2,.cls-3{fill:#ededed;stroke:#ededed;stroke-miterlimit:10;}.cls-2{stroke-width:1.3px;}.cls-3{stroke-width:4px;}</style><linearGradient id="linear-gradient" x1="27.16" y1="-5.6" x2="137.84" y2="261.6" gradientUnits="userSpaceOnUse"><stop offset="0" stop-color="#ffe780"/><stop offset="0.07" stop-color="#ffe46e"/><stop offset="0.12" stop-color="#ffe366"/><stop offset="0.22" stop-color="#ffde4c"/><stop offset="0.3" stop-color="#ffdb3d"/><stop offset="0.36" stop-color="#fdd32f"/><stop offset="0.48" stop-color="#fac81a"/><stop offset="0.61" stop-color="#f8c00b"/><stop offset="0.76" stop-color="#f7bb03"/><stop offset="1" stop-color="#f7ba00"/></linearGradient></defs><title>yellow</title><g id="Layer_3_copy_13" data-name="Layer 3 copy 13"><rect class="cls-1" width="165" height="256" rx="17" ry="17"/></g><path class="cls-2" d="M15.12,44.15c7.48-7.46,15.13-11.71,8.09-19.89,10.25,9.37-.06,13.92-7.07,20.91"/><path class="cls-2" d="M16.43,45.17c2.44.49,7.15,1.13,7.15,1.29s-6.52.15-9.77,0c0-3.27.29-8.83.48-8.85s.64,4.08,1.12,6.52"/><path class="cls-2" d="M28.81,13.78c.12,3.25-1,4.91-1.45,2.46C19.89,23.71,12.24,28,19.28,36.14,9,26.77,19.34,22.21,26.35,15.22"/><path class="cls-2" d="M26.35,15.22c-2.45-.48-7.16-1.12-7.16-1.29s6.53-.14,9.78,0c0,3.27-.3,8.83-.49,8.85s-.64-4.08-1.12-6.53"/><g id="Layer_38_copy_2" data-name="Layer 38 copy 2"><path class="cls-3" d="M63.05,171.82c23.49-23.43,47.51-36.78,25.39-62.46,32.2,29.41-.18,43.71-22.19,65.67"/><g id="Layer_38_copy_2-2" data-name="Layer 38 copy 2"><path class="cls-3" d="M67.16,175c7.66,1.52,22.47,3.53,22.47,4.05s-20.49.45-30.7,0c0-10.25.92-27.71,1.51-27.78s2,12.82,3.52,20.49"/></g><path class="cls-3" d="M106,76.45c.39,10.21-3,15.4-4.54,7.73C78,107.61,54,121,76.11,146.64c-32.2-29.41.17-43.71,22.19-65.67"/><path class="cls-3" d="M98.3,81c-7.67-1.52-22.47-3.53-22.47-4s20.49-.45,30.69,0c0,10.25-.92,27.71-1.51,27.78s-2-12.82-3.51-20.49"/></g><g id="Layer_42" data-name="Layer 42"><path class="cls-2" d="M137,239.8c7.48-7.46,15.13-11.72,8.08-19.89,10.26,9.36-.05,13.92-7.06,20.91"/><path class="cls-2" d="M138.31,240.82c2.45.48,7.16,1.13,7.16,1.29s-6.53.14-9.78,0c0-3.26.3-8.82.49-8.85s.64,4.08,1.12,6.53"/><path class="cls-2" d="M150.7,209.43c.12,3.25-1,4.9-1.45,2.46-7.48,7.46-15.13,11.71-8.09,19.89-10.25-9.37.06-13.92,7.07-20.91"/><path class="cls-2" d="M148.23,210.87c-2.44-.49-7.15-1.13-7.15-1.29s6.52-.15,9.77,0c0,3.26-.29,8.82-.48,8.84s-.64-4.08-1.12-6.52"/></g></svg>