<svg id="_9" data-name="9" xmlns="http://www.w3.org/2000/svg" xmlns:xlink="http://www.w3.org/1999/xlink" viewBox="0 0 165 256"><defs><style>.cls-1{fill:url(#linear-gradient);}.cls-2{fill:#ebebeb;}</style><linearGradient id="linear-gradient" x1="27.16" y1="-5.6" x2="137.84" y2="261.6" gradientUnits="userSpaceOnUse"><stop offset="0" stop-color="#63a7c5"/><stop offset="0.06" stop-color="#57a3c5"/><stop offset="0.12" stop-color="#4fa1c5"/><stop offset="0.21" stop-color="#3e9cc5"/><stop offset="0.3" stop-color="#2f97c5"/><stop offset="0.35" stop-color="#278dc0"/><stop offset="0.46" stop-color="#1678b7"/><stop offset="0.6" stop-color="#0969b0"/><stop offset="0.75" stop-color="#0261ac"/><stop offset="1" stop-color="#005eab"/></linearGradient></defs><title>blue</title><g id="Layer_3_copy_28" data-name="Layer 3 copy 28"><rect class="cls-1" width="165" height="256" rx="17" ry="17"/></g><path class="cls-2" d="M52.93,106.24c0-10.32,6.82-27.95,28.37-27.95,19.6,0,30.8,14.31,30.8,39.81,0,25.07-14.49,46.69-34.45,46.69-10.59,0-19.12-6-20.94-7.21l6.45-6.1a24.81,24.81,0,0,0,14,4.55c18.75,0,25-24.62,25.32-39.37-8,11.31-16.8,14.42-24.1,14.42C64.74,131.08,52.93,124.65,52.93,106.24Zm10.11,0c0,12.53,7.18,16.63,15.34,16.63,6.82,0,15.46-3.77,22.76-18C98.59,93,91.53,86.39,81.3,86.39,67.42,86.39,63,99,63,106.24Z"/><rect class="cls-2" x="60.11" y="169.54" width="43.63" height="8.17"/><g id="Layer_65" data-name="Layer 65"><path class="cls-2" d="M13.5,22.87c0-3.46,2.29-9.37,9.51-9.37,6.57,0,10.33,4.8,10.33,13.35,0,8.4-4.86,15.65-11.55,15.65a12.94,12.94,0,0,1-7-2.42l2.16-2a8.34,8.34,0,0,0,4.69,1.52c6.29,0,8.37-8.25,8.49-13.2-2.69,3.8-5.63,4.84-8.08,4.84C17.46,31.2,13.5,29,13.5,22.87Zm3.39,0c0,4.2,2.41,5.58,5.14,5.58,2.29,0,5.19-1.27,7.63-6-.85-4-3.22-6.21-6.65-6.21C18.36,16.21,16.89,20.45,16.89,22.87Z"/><rect class="cls-2" x="15.91" y="44.09" width="14.63" height="2.74"/><path class="cls-2" d="M151.5,233.13c0,3.46-2.29,9.37-9.51,9.37-6.57,0-10.33-4.8-10.33-13.35s4.86-15.65,11.55-15.65a13,13,0,0,1,7,2.41L148.07,218a8.31,8.31,0,0,0-4.69-1.53c-6.29,0-8.37,8.26-8.49,13.2,2.69-3.79,5.63-4.83,8.08-4.83C147.54,224.8,151.5,227,151.5,233.13Zm-3.39,0c0-4.2-2.41-5.58-5.14-5.58-2.29,0-5.19,1.27-7.63,6,.85,4,3.22,6.21,6.65,6.21C146.64,239.79,148.11,235.55,148.11,233.13Z"/><rect class="cls-2" x="134.47" y="209.17" width="14.63" height="2.74" transform="translate(283.56 421.07) rotate(-180)"/></g></svg>