<svg id="_4" data-name="4" xmlns="http://www.w3.org/2000/svg" xmlns:xlink="http://www.w3.org/1999/xlink" viewBox="0 0 165 256"><defs><style>.cls-1{fill:url(#linear-gradient);}.cls-2,.cls-3{fill:#ebebeb;stroke:#ebebeb;stroke-miterlimit:10;}.cls-2{stroke-width:3px;}</style><linearGradient id="linear-gradient" x1="27.16" y1="-5.6" x2="137.84" y2="261.6" gradientUnits="userSpaceOnUse"><stop offset="0" stop-color="#63a7c5"/><stop offset="0.06" stop-color="#57a3c5"/><stop offset="0.12" stop-color="#4fa1c5"/><stop offset="0.21" stop-color="#3e9cc5"/><stop offset="0.3" stop-color="#2f97c5"/><stop offset="0.35" stop-color="#278dc0"/><stop offset="0.46" stop-color="#1678b7"/><stop offset="0.6" stop-color="#0969b0"/><stop offset="0.75" stop-color="#0261ac"/><stop offset="1" stop-color="#005eab"/></linearGradient></defs><title>blue</title><g id="Layer_3_copy_48" data-name="Layer 3 copy 48"><rect class="cls-1" width="165" height="256" rx="17" ry="17"/></g><path class="cls-2" d="M110.45,147.25H99.18v21.83H89.63V147.25H50.55v-5L92.63,86.67h6.55v52.44h11.27Zm-20.82-8.14v-36L63.86,137.94l-1.5,1.49v.11l2-.43Z"/><g id="Layer_47" data-name="Layer 47"><path class="cls-3" d="M130.76,221.66h3.82v-7.4h3.24v7.4h13.24v1.7L136.8,242.19h-2.22V224.42h-3.82Zm7.06,2.76V236.6l8.73-11.79.51-.5v0l-.69.15Z"/></g><g id="Layer_45" data-name="Layer 45"><path class="cls-3" d="M34.44,34.43H30.62v7.4H27.38v-7.4H14.14v-1.7L28.4,13.91h2.22V31.68h3.82Zm-7.06-2.75V19.49L18.65,31.28l-.51.51v0l.69-.14Z"/></g></svg>