<svg id="_7" data-name="7" xmlns="http://www.w3.org/2000/svg" xmlns:xlink="http://www.w3.org/1999/xlink" viewBox="0 0 165 256"><defs><style>.cls-1{fill:url(#linear-gradient);}.cls-2{fill:#ebebeb;}</style><linearGradient id="linear-gradient" x1="27.16" y1="-5.6" x2="137.84" y2="261.6" gradientUnits="userSpaceOnUse"><stop offset="0" stop-color="#63a7c5"/><stop offset="0.06" stop-color="#57a3c5"/><stop offset="0.12" stop-color="#4fa1c5"/><stop offset="0.21" stop-color="#3e9cc5"/><stop offset="0.3" stop-color="#2f97c5"/><stop offset="0.35" stop-color="#278dc0"/><stop offset="0.46" stop-color="#1678b7"/><stop offset="0.6" stop-color="#0969b0"/><stop offset="0.75" stop-color="#0261ac"/><stop offset="1" stop-color="#005eab"/></linearGradient></defs><title>blue</title><g id="Layer_3_copy_36" data-name="Layer 3 copy 36"><rect class="cls-1" width="165" height="256" rx="17" ry="17"/></g><path class="cls-2" d="M51.55,84.75l65.23-.22v10C103.5,113,68.67,162.67,59.41,175.84l-7.86-6.4c9.37-12.61,36.12-52.44,52-74.88l-51.95.07Z"/><g id="Layer_59" data-name="Layer 59"><path class="cls-2" d="M13.5,13.58l23-.08V17C31.8,23.53,19.53,41,16.27,45.67L13.5,43.41C16.8,39,26.22,24.94,31.8,17l-18.3,0Z"/><path class="cls-2" d="M151.34,242.42l-23,.08V239c4.68-6.52,16.95-24,20.21-28.66l2.77,2.26C148,217,138.62,231.06,133,239l18.3,0Z"/></g></svg>