<svg id="_7" data-name="7" xmlns="http://www.w3.org/2000/svg" xmlns:xlink="http://www.w3.org/1999/xlink" viewBox="0 0 165 256"><defs><style>.cls-1{fill:url(#linear-gradient);}.cls-2{fill:#ebebeb;}</style><linearGradient id="linear-gradient" x1="27.16" y1="-5.6" x2="137.84" y2="261.6" gradientUnits="userSpaceOnUse"><stop offset="0" stop-color="#94c462"/><stop offset="0.06" stop-color="#8ec456"/><stop offset="0.12" stop-color="#8ac44e"/><stop offset="0.2" stop-color="#82c43e"/><stop offset="0.3" stop-color="#7bc42f"/><stop offset="0.3" stop-color="#7bc42f"/><stop offset="0.4" stop-color="#60ba1e"/><stop offset="0.51" stop-color="#4bb311"/><stop offset="0.63" stop-color="#3cad07"/><stop offset="0.78" stop-color="#34aa02"/><stop offset="1" stop-color="#31a900"/></linearGradient></defs><title>green</title><g id="Layer_3_copy_34" data-name="Layer 3 copy 34"><rect class="cls-1" width="165" height="256" rx="17" ry="17"/></g><path class="cls-2" d="M51.55,84.75l65.23-.22v10C103.5,113,68.67,162.67,59.41,175.84l-7.86-6.4c9.37-12.61,36.12-52.44,52-74.88l-51.95.07Z"/><g id="Layer_59" data-name="Layer 59"><path class="cls-2" d="M13.5,13.58l23-.08V17C31.8,23.53,19.53,41,16.27,45.67L13.5,43.41C16.8,39,26.22,24.94,31.8,17l-18.3,0Z"/><path class="cls-2" d="M151.34,242.42l-23,.08V239c4.68-6.52,16.95-24,20.21-28.66l2.77,2.26C148,217,138.62,231.06,133,239l18.3,0Z"/></g></svg>