<svg id="wild" xmlns="http://www.w3.org/2000/svg" xmlns:xlink="http://www.w3.org/1999/xlink" viewBox="0 0 165 256"><defs><style>.cls-1{fill:url(#linear-gradient);}.cls-2{fill:#f41d00;}.cls-3{fill:#31a900;}.cls-4{fill:#005eab;}.cls-5{fill:#f7ba00;}</style><linearGradient id="linear-gradient" x1="27.16" y1="-5.6" x2="137.84" y2="261.6" gradientUnits="userSpaceOnUse"><stop offset="0" stop-color="#807b7c"/><stop offset="0.07" stop-color="#6e696b"/><stop offset="0.12" stop-color="#666264"/><stop offset="0.18" stop-color="#5c585a"/><stop offset="0.3" stop-color="#4d4a4b"/><stop offset="0.45" stop-color="#423e3f"/><stop offset="0.67" stop-color="#3a3637"/><stop offset="1" stop-color="#373334"/></linearGradient></defs><title>black</title><g id="Layer_3_copy_11" data-name="Layer 3 copy 11"><rect class="cls-1" width="165" height="256" rx="17" ry="17"/></g><g id="Layer_8_copy" data-name="Layer 8 copy"><path class="cls-2" d="M43.25,131.65H35.07a47.57,47.57,0,0,0,43.78,43.78v-8.8A38.94,38.94,0,0,1,43.25,131.65Z"/><path class="cls-3" d="M86.15,166.57v8.86a47.57,47.57,0,0,0,43.78-43.78H121.1A39,39,0,0,1,86.15,166.57Z"/><path class="cls-4" d="M35.07,124.35h8.18a38.94,38.94,0,0,1,35.6-35v-8.8A47.57,47.57,0,0,0,35.07,124.35Z"/><path class="cls-5" d="M121.1,124.35h8.83A47.57,47.57,0,0,0,86.15,80.57v8.86A39,39,0,0,1,121.1,124.35Z"/></g><g id="Layer_54" data-name="Layer 54"><path class="cls-2" d="M16,29.18H13.5A14.59,14.59,0,0,0,26.94,42.62v-2.7A12,12,0,0,1,16,29.18Z"/><path class="cls-3" d="M29.18,39.9v2.72A14.58,14.58,0,0,0,42.62,29.18H39.91A12,12,0,0,1,29.18,39.9Z"/><path class="cls-4" d="M13.5,26.94H16A12,12,0,0,1,26.94,16.2V13.5A14.6,14.6,0,0,0,13.5,26.94Z"/><path class="cls-5" d="M39.91,26.94h2.71A14.59,14.59,0,0,0,29.18,13.5v2.72A12,12,0,0,1,39.91,26.94Z"/><path class="cls-2" d="M149,226.82h2.51a14.59,14.59,0,0,0-13.44-13.44v2.7A12,12,0,0,1,149,226.82Z"/><path class="cls-3" d="M135.82,216.1v-2.72a14.58,14.58,0,0,0-13.44,13.44h2.71A12,12,0,0,1,135.82,216.1Z"/><path class="cls-4" d="M151.5,229.06H149a12,12,0,0,1-10.93,10.74v2.7A14.6,14.6,0,0,0,151.5,229.06Z"/><path class="cls-5" d="M125.09,229.06h-2.71a14.59,14.59,0,0,0,13.44,13.44v-2.72A12,12,0,0,1,125.09,229.06Z"/></g></svg>