<svg id="wild" xmlns="http://www.w3.org/2000/svg" xmlns:xlink="http://www.w3.org/1999/xlink" viewBox="0 0 165 256"><defs><style>.cls-1{fill:url(#linear-gradient);}.cls-2{fill:#ebebeb;}</style><linearGradient id="linear-gradient" x1="27.16" y1="-5.6" x2="137.84" y2="261.6" gradientUnits="userSpaceOnUse"><stop offset="0" stop-color="#63a7c5"/><stop offset="0.06" stop-color="#57a3c5"/><stop offset="0.12" stop-color="#4fa1c5"/><stop offset="0.21" stop-color="#3e9cc5"/><stop offset="0.3" stop-color="#2f97c5"/><stop offset="0.35" stop-color="#278dc0"/><stop offset="0.46" stop-color="#1678b7"/><stop offset="0.6" stop-color="#0969b0"/><stop offset="0.75" stop-color="#0261ac"/><stop offset="1" stop-color="#005eab"/></linearGradient></defs><title>blue</title><g id="Layer_3_copy_68" data-name="Layer 3 copy 68"><rect class="cls-1" width="165" height="256" rx="17" ry="17"/></g><g id="Layer_8_copy_2" data-name="Layer 8 copy 2"><path class="cls-2" d="M43.25,131.65H35.07a47.57,47.57,0,0,0,43.78,43.78v-8.8A38.94,38.94,0,0,1,43.25,131.65Z"/><path class="cls-2" d="M86.15,166.57v8.86a47.57,47.57,0,0,0,43.78-43.78H121.1A39,39,0,0,1,86.15,166.57Z"/><path class="cls-2" d="M35.07,124.35h8.18a38.94,38.94,0,0,1,35.6-35v-8.8A47.57,47.57,0,0,0,35.07,124.35Z"/><path class="cls-2" d="M121.1,124.35h8.83A47.57,47.57,0,0,0,86.15,80.57v8.86A39,39,0,0,1,121.1,124.35Z"/><g id="Layer_54_copy" data-name="Layer 54 copy"><path class="cls-2" d="M16,29.18H13.5A14.59,14.59,0,0,0,26.94,42.62v-2.7A12,12,0,0,1,16,29.18Z"/><path class="cls-2" d="M29.18,39.9v2.72A14.58,14.58,0,0,0,42.62,29.18H39.91A12,12,0,0,1,29.18,39.9Z"/><path class="cls-2" d="M13.5,26.94H16A12,12,0,0,1,26.94,16.2V13.5A14.6,14.6,0,0,0,13.5,26.94Z"/><path class="cls-2" d="M39.91,26.94h2.71A14.59,14.59,0,0,0,29.18,13.5v2.72A12,12,0,0,1,39.91,26.94Z"/><path class="cls-2" d="M149,226.82h2.51a14.59,14.59,0,0,0-13.44-13.44v2.7A12,12,0,0,1,149,226.82Z"/><path class="cls-2" d="M135.82,216.1v-2.72a14.58,14.58,0,0,0-13.44,13.44h2.71A12,12,0,0,1,135.82,216.1Z"/><path class="cls-2" d="M151.5,229.06H149a12,12,0,0,1-10.93,10.74v2.7A14.6,14.6,0,0,0,151.5,229.06Z"/><path class="cls-2" d="M125.09,229.06h-2.71a14.59,14.59,0,0,0,13.44,13.44v-2.72A12,12,0,0,1,125.09,229.06Z"/></g></g></svg>